<?xml version="1.0" encoding="UTF-8" standalone="no"?>
<svg id="symbool_fiets" width="300" height="188" viewBox="0 0 75 47"
xmlns="http://www.w3.org/2000/svg" version="1.1">

<path id="symbool_fiets_zwart" fill="black"
     d="m 32.78125,0 0,2.9374962 -5.09375,0 c -0.63794,0 -1.22134,0.39191 -1.4375,1 l -1.75,4.875 24.59375,0 1.40625,-2.9375 -4.375,0 c -0.80138,-0.00533 -1.4375,-0.65796 -1.4375,-1.46875 0,-0.81079 0.63612,-1.46375 1.4375,-1.46875 l 11.25,0 0,2.9375 -3.65625,0 -2.09375,4.4062498 4.0625,8.5625 c 1.507631,-0.531044 3.123225,-0.84375 4.8125,-0.84375 8.008129,0 14.5,6.491871 14.5,14.5 0,8.008129 -6.491871,14.5 -14.5,14.5 -7.5714,0 -13.782029,-5.817702 -14.4375,-13.21875 l -6.46875,0 c -0.43232,0 -0.87155,-0.2032 -1.15625,-0.53125 l -16.125,-18.375 -1.625,4.53125 C 25.595401,21.729968 29,26.709118 29,32.499996 c 0,8.008129 -6.491871,14.5 -14.5,14.5 -8.008129,0 -14.5,-6.491871 -14.5,-14.5 0,-8.008129 6.491871,-14.5 14.5,-14.5 1.195444,0 2.357435,0.16472 3.46875,0.4375 L 23.5,3.0312462 C 24.15376,1.2096462 25.86744,0 27.78125,0 l 5,0 z m 14.90625,11.749996 -24.25,0 15.75,17.9375 8.5,-17.9375 z m 2.3125,1.90625 -8.125,17.15625 4.21875,0 c 0.533027,-4.565281 3.205698,-8.491279 6.96875,-10.75 L 50,13.656246 z m 10.5,7.34375 c -1.225674,0 -2.392257,0.207368 -3.5,0.5625 l 4.8125,10.15625 c 0.21089,0.44807 0.16988,0.9536 -0.09375,1.375 -0.26098,0.41873 -0.7258,0.6875 -1.21875,0.6875 l -11.4375,0 c 0.632319,5.753434 5.515633,10.21875 11.4375,10.21875 6.351275,0 11.5,-5.148725 11.5,-11.5 0,-6.351275 -5.148725,-11.5 -11.5,-11.5 z m -46,0 c -6.351275,0 -11.5,5.148725 -11.5,11.5 0,6.351275 5.148725,11.5 11.5,11.5 6.351275,0 11.5,-5.148725 11.5,-11.5 0,-4.487272 -2.595321,-8.354951 -6.34375,-10.25 l -3.78125,10.5625 c -0.27943,0.75478 -1.12634,1.12112 -1.875,0.84375 -0.737053,-0.274036 -1.093976,-1.093658 -0.84375,-1.84375 l 3.78125,-10.5625 c -0.787802,-0.170536 -1.598652,-0.25 -2.4375,-0.25 z m 39.84375,1.78125 c -2.762758,1.753534 -4.72241,4.654597 -5.21875,8.03125 l 9.03125,0 -3.8125,-8.03125" />

</svg>